<svg xmlns="http://www.w3.org/2000/svg" width="65" height="23" viewBox="0 0 65 23">
    <path fill="#000" fill-rule="nonzero" d="M52.904.335c2.265 0 4.248.43 5.947 1.289a9.292 9.292 0 0 1 3.955 3.743c.937 1.635 1.406 3.581 1.406 5.837 0 2.207-.48 4.16-1.443 5.86a10.076 10.076 0 0 1-4.02 3.955c-1.72.937-3.677 1.406-5.875 1.406-2.265 0-4.248-.43-5.947-1.29a9.292 9.292 0 0 1-3.955-3.742c-.938-1.636-1.406-3.581-1.406-5.837 0-2.207.48-4.16 1.443-5.86a10.09 10.09 0 0 1 4.013-3.955C48.736.804 50.697.335 52.904.335zM31.66 6.004c1.094 0 2.046.151 2.857.454.81.303 1.433.745 1.867 1.326.435.58.652 1.272.652 2.072 0 1.153-.454 2.14-1.362 2.96-.833.751-1.969 1.557-3.408 2.415l-.986.58c-1.307.776-2.19 1.37-2.652 1.78h6.782c.547 0 .952-.037 1.216-.11.264-.073.447-.193.55-.359.102-.166.183-.42.241-.762h.689l.007 1.707c.016 1.734.057 3.094.124 4.08l-.14-.025c-.548-.077-1.883-.118-4.003-.122H23.898v-.63l.314-.298c.406-.377 1.129-1.03 2.169-1.958 1.41-1.26 2.553-2.57 3.427-3.933.874-1.362 1.311-2.742 1.311-4.138 0-1.016-.217-1.758-.652-2.227-.434-.468-1.106-.703-2.014-.703-.85 0-1.594.169-2.234.506-.64.337-1.233.837-1.78 1.501l-.512-.366A8.351 8.351 0 0 1 26.937 7c1.226-.664 2.8-.996 4.724-.996zM12.938.76l7.266 18.72c.254.645.537 1.121.85 1.429.312.307.62.47.923.49V22a120.843 120.843 0 0 0-4.003-.083l-1.461-.005c-2.285 0-3.965.03-5.04.088v-.6c.753-.03 1.292-.123 1.62-.279.326-.156.49-.43.49-.82 0-.27-.096-.673-.29-1.213L11.445 14H5.637L4.04 17.994c-.093.462-.14.87-.14 1.223 0 .82.227 1.382.682 1.684.454.303 1.13.47 2.028.498V22l-1.085-.038a96.688 96.688 0 0 0-2.41-.049h-.43c-.948 0-1.72.028-2.315.087v-.6c.488-.079.955-.386 1.399-.923.162-.197.326-.436.49-.72L7.292 7.171 9.79.76c.43.039.957.058 1.582.058.625 0 1.148-.02 1.567-.058zm39.848.117c-.986 0-1.85.447-2.592 1.34-.743.894-1.316 2.139-1.722 3.736-.405 1.596-.607 3.425-.607 5.485 0 2.07.229 3.9.688 5.486.459 1.587 1.08 2.81 1.86 3.67.782.86 1.641 1.289 2.578 1.289.987 0 1.851-.447 2.593-1.34.742-.894 1.316-2.14 1.721-3.736.406-1.597.608-3.425.608-5.486 0-2.07-.23-3.899-.688-5.486-.46-1.586-1.08-2.81-1.86-3.669-.782-.86-1.641-1.289-2.579-1.289zM8.687 6.375L6.038 13h5.056L8.687 6.375z"/>
</svg>
