<svg xmlns="http://www.w3.org/2000/svg" width="44" height="60" viewBox="0 0 44 60">
    <path fill="#3BBB07" fill-rule="evenodd" d="M36.984 20.268c8.458 2.98 10.582 17.827-1.037 27.5-.564.47-5.1 4.447-13.606 11.933l-.335.299C13.302 52.314 8.664 48.235 8.092 47.764c-11.745-9.672-9.47-24.517-1.035-27.496 5.97-2.108 10.952.145 14.945 6.759 4.003-6.614 8.997-8.867 14.982-6.759zm-6.373-9.077c-2.875 2.361-5.038 6.08-6.488 11.158a24.498 24.498 0 0 0-2.24 2.907 29.336 29.336 0 0 0-1.922-2.886c2.639-6.75 6.19-10.476 10.65-11.18zM16.878 5.127c3.217 2.704 4.85 6.68 4.898 11.928-5.17.864-9.362-.055-12.58-2.76-3.217-2.703-4.85-6.68-4.898-11.927 5.17-.864 9.362.055 12.58 2.76zm17.81-2.83C37.063.302 40.144-.393 43.931.211c-.063 3.84-1.281 6.759-3.656 8.754-2.375 1.996-5.456 2.691-9.243 2.087.062-3.841 1.281-6.759 3.656-8.755z"/>
</svg>
