<svg xmlns="http://www.w3.org/2000/svg" width="113" height="28" viewBox="0 0 113 28">
    <path fill="#000" fill-rule="nonzero" d="M.806 14.6c.127 2.237.622 4.05 1.486 5.442.865 1.392 2.19 2.088 3.978 2.088.703 0 1.335-.125 1.897-.374A2.994 2.994 0 0 0 9.5 20.621c.327-.508.49-1.123.49-1.846 0-.78-.183-1.482-.55-2.102a6.501 6.501 0 0 0-1.479-1.699c-.55-.456-1.266-.975-2.145-1.558l-1.034-.678a29.098 29.098 0 0 1-2.182-1.58 7.54 7.54 0 0 1-1.758-2.05C.378 8.315.146 7.397.146 6.353c0-1.211.308-2.23.923-3.055.616-.825 1.431-1.438 2.447-1.838 1.015-.4 2.133-.6 3.354-.6.723 0 1.35.053 1.882.16.533.108.977.242 1.333.403.268.121.553.265.856.433l.309.175c.479.283.815.425 1.01.425.186 0 .328-.105.426-.315.097-.21.175-.544.234-1.003h.688l-.025.388c-.08 1.372-.121 3.523-.121 6.452h-.689a9.347 9.347 0 0 0-.725-3.09c-.415-.977-.996-1.77-1.743-2.38-.747-.611-1.623-.916-2.63-.916-.634 0-1.203.122-1.706.366a2.717 2.717 0 0 0-1.172 1.062c-.278.464-.417 1.003-.417 1.619 0 .996.298 1.811.893 2.446.596.635 1.373 1.277 2.33 1.926l1.933 1.311c1.172.781 2.1 1.46 2.783 2.036a7.218 7.218 0 0 1 1.67 2.022c.43.771.645 1.665.645 2.68 0 1.28-.332 2.359-.996 3.238-.664.879-1.558 1.535-2.681 1.97-1.123.435-2.378.652-3.765.652-1.123 0-2.053-.1-2.79-.3a9.344 9.344 0 0 1-2.044-.813c-.43-.284-.766-.425-1.01-.425-.186 0-.327.105-.425.315-.098.21-.176.544-.235 1.003H0l.016-.29c.068-1.353.101-3.956.101-7.81h.689zm22.97-5.156c.42-.937 1.033-1.65 1.839-2.138.806-.489 1.74-.733 2.805-.733 1.035 0 1.958.281 2.769.843.81.561 1.447 1.4 1.911 2.52.464 1.117.696 2.482.696 4.093 0 1.914-.286 3.538-.857 4.87-.571 1.334-1.377 2.337-2.417 3.011-1.04.674-2.268 1.01-3.684 1.01-1.289 0-2.31-.316-3.061-.951v2.988c0 .879.222 1.49.666 1.831.444.342 1.12.513 2.029.513v.63l-1.992-.074a80.816 80.816 0 0 0-3.047-.058c-.508 0-1.021.009-1.54.026l-2.24.106v-.63c.45 0 .801-.061 1.055-.183.254-.122.442-.332.564-.63.122-.298.183-.71.183-1.238v-15c0-.918-.144-1.587-.432-2.007-.288-.42-.784-.63-1.487-.63v-.63a20.24 20.24 0 0 0 1.86.088c1.749 0 3.209-.136 4.38-.41v2.783zm0 11.866c.45.527 1.08.79 1.89.79 1.28 0 2.2-.637 2.761-1.911.562-1.274.843-3.127.843-5.56 0-2.43-.225-4.167-.674-5.207-.45-1.04-1.094-1.56-1.934-1.56-.683 0-1.294.23-1.83.689-.538.459-.89 1.094-1.055 1.904V21.31zM42.969 9.444c.38-.85.93-1.54 1.648-2.072a3.99 3.99 0 0 1 2.439-.799c.605 0 1.113.132 1.523.396.41.263.713.603.909 1.018.195.415.293.862.293 1.34 0 .742-.215 1.348-.645 1.817-.43.468-.996.703-1.7.703-.683 0-1.222-.174-1.618-.52-.395-.347-.593-.813-.593-1.4 0-.956.44-1.738 1.318-2.343a1.628 1.628 0 0 0-.366-.044c-.137 0-.293.024-.469.073-.508.078-.971.32-1.391.725-.42.406-.75.891-.99 1.458a4.239 4.239 0 0 0-.358 1.655v7.954c0 .928.225 1.57.674 1.927.45.356 1.167.534 2.153.534v.63l-2.953-.085c-.701-.017-1.235-.028-1.602-.031l-.58.002c-.747.01-2.057.048-3.932.114v-.63c.478 0 .857-.063 1.135-.19s.479-.347.6-.66c.123-.312.184-.746.184-1.303V10.25c0-.928-.142-1.6-.425-2.014-.283-.415-.781-.623-1.494-.623v-.63a20.24 20.24 0 0 0 1.86.088c1.768 0 3.228-.136 4.38-.41v2.783zm16.16-2.87c2.285 0 4.079.654 5.383 1.962 1.303 1.309 1.955 3.384 1.955 6.226 0 2.832-.652 4.9-1.955 6.203-1.304 1.304-3.098 1.956-5.384 1.956-2.285 0-4.082-.652-5.39-1.956-1.309-1.303-1.963-3.371-1.963-6.203 0-2.832.654-4.905 1.963-6.219 1.308-1.313 3.105-1.97 5.39-1.97zm0 .585c-.86 0-1.546.625-2.059 1.875-.512 1.25-.769 3.16-.769 5.728 0 2.558.257 4.458.77 5.698.512 1.24 1.198 1.86 2.057 1.86.87 0 1.556-.617 2.058-1.853.503-1.235.755-3.137.755-5.705 0-2.578-.252-4.49-.755-5.735-.502-1.245-1.188-1.868-2.058-1.868zm25.211 12.07c0 .928.144 1.6.433 2.015.288.415.783.622 1.486.622v.63a19.922 19.922 0 0 0-1.86-.088c-1.758 0-3.218.142-4.38.425v-2.71c-.908 1.865-2.52 2.798-4.834 2.798-1.494 0-2.583-.39-3.266-1.172-.332-.371-.57-.864-.71-1.48-.143-.615-.213-1.42-.213-2.416V10.25c0-.918-.144-1.587-.432-2.007-.289-.42-.784-.63-1.487-.63v-.63a20.24 20.24 0 0 0 1.86.088c1.748 0 3.208-.136 4.38-.41v12.422c0 .83.124 1.458.374 1.882.249.425.72.638 1.413.638.527 0 1.013-.154 1.458-.462a3.25 3.25 0 0 0 1.062-1.26c.263-.532.395-1.12.395-1.765V10.25c0-.918-.144-1.587-.432-2.007-.288-.42-.784-.63-1.487-.63v-.63a20.24 20.24 0 0 0 1.86.088c1.749 0 3.209-.136 4.38-.41V19.23zM98.301 7.013v.6h-3.544v12.1c0 .596.107 1.018.322 1.267.215.249.547.374.996.374.85 0 1.528-.601 2.036-1.802l.513.278c-.752 2.06-2.12 3.09-4.102 3.09-1.318 0-2.32-.34-3.003-1.024-.42-.41-.705-.93-.857-1.56-.151-.63-.227-1.502-.227-2.615V7.613h-2.52v-.6h2.52V3.028c1.65 0 3.091-.322 4.322-.966v4.95H98.3zm3.386 9.697c.196 1.728.618 3.081 1.267 4.058.65.976 1.57 1.464 2.762 1.464.586 0 1.086-.178 1.501-.534.415-.357.623-.891.623-1.604 0-.557-.125-1.055-.374-1.494a4.638 4.638 0 0 0-.945-1.172l-.282-.247c-.362-.31-.84-.696-1.432-1.16l-.772-.633c-.552-.458-.99-.838-1.315-1.139a6.223 6.223 0 0 1-1.194-1.53c-.332-.592-.498-1.263-.498-2.015 0-.86.235-1.601.703-2.226.47-.625 1.099-1.1 1.89-1.421a6.768 6.768 0 0 1 2.578-.484c.762 0 1.46.093 2.095.279.544.159.988.34 1.33.541l.164.103c.195.137.371.205.527.205.371 0 .606-.366.703-1.098h.66l-.025.363c-.062 1.042-.093 2.68-.093 4.91h-.659c-.176-1.309-.569-2.41-1.179-3.303-.61-.894-1.497-1.34-2.659-1.34-.595 0-1.084.17-1.465.512-.38.342-.57.81-.57 1.406 0 .674.224 1.255.673 1.744.45.488.991.957 1.626 1.406l.9.644c.197.145.361.267.492.367.82.615 1.472 1.152 1.955 1.61.484.46.877.98 1.18 1.56.302.582.453 1.248.453 2 0 .88-.256 1.656-.769 2.33-.512.673-1.203 1.193-2.072 1.56-.87.366-1.822.549-2.857.549-.958 0-1.805-.17-2.542-.51l-.241-.12c-.596-.303-1.064-.513-1.406-.63a.482.482 0 0 0-.147-.03c-.322 0-.556.357-.703 1.07h-.659l.022-.368c.064-1.182.095-3.057.095-5.623h.66z"/>
</svg>
