<svg xmlns="http://www.w3.org/2000/svg" width="293" height="30" viewBox="0 0 293 30">
    <path fill="#000" fill-rule="nonzero" d="M24.188 2.76c1.124.049 2.172.077 3.146.085l.575.003c.947 0 1.719-.03 2.315-.088v.6c-1.172.45-2.051 1.641-2.637 3.575l-5.288 17.124a11.182 11.182 0 0 0-.854-.03l-.579.003a9.279 9.279 0 0 0-.662.027L15.78 10.685l-4.424 13.374a11.607 11.607 0 0 0-.857-.03l-.576.003a9.88 9.88 0 0 0-.676.027L2.523 5.279c-.224-.654-.51-1.133-.856-1.435C1.32 3.54.976 3.38.634 3.36v-.6c.983.048 2.161.076 3.536.085l.946.003c1.68 0 2.905-.03 3.677-.088v.6c-.693.088-1.04.479-1.04 1.172 0 .371.088.82.264 1.348l4.38 12.656 3.046-8.906-1.538-4.644c-.195-.586-.43-.996-.703-1.23a1.63 1.63 0 0 0-.952-.396v-.6c.91.048 2.034.076 3.37.085l.922.003c1.943 0 3.384-.03 4.321-.088v.6c-.732.02-1.255.103-1.567.25-.313.146-.469.434-.469.864 0 .322.098.79.293 1.406l4.102 12.554 2.856-9.068c.45-1.465.674-2.632.674-3.5 0-.87-.212-1.497-.637-1.883-.425-.386-1.067-.593-1.927-.623v-.6zm18.914 11.968h-8.423l-.02.252c-.016.286-.024.67-.024 1.154 0 1.328.185 2.429.557 3.303.37.874.852 1.514 1.442 1.919.591.405 1.224.608 1.897.608 1.65 0 2.974-.8 3.97-2.402l.527.175a7.468 7.468 0 0 1-1.179 2.293 6.205 6.205 0 0 1-2.021 1.728c-.816.445-1.746.667-2.79.667-1.378 0-2.586-.293-3.626-.88-1.04-.585-1.85-1.476-2.432-2.672-.58-1.197-.871-2.684-.871-4.46 0-1.817.312-3.348.937-4.593s1.49-2.18 2.593-2.805 2.378-.938 3.823-.938c3.76 0 5.64 2.217 5.64 6.65zm-3.78-.572c.03-1.562-.129-2.861-.476-3.896-.346-1.035-.871-1.553-1.574-1.553-.713 0-1.307.442-1.78 1.326-.474.884-.764 2.258-.872 4.123h4.702zm12.703 7.06c0 .557.06.992.183 1.305.122.312.322.532.6.659.279.127.657.19 1.136.19V24l-2.327-.081a63.191 63.191 0 0 0-1.687-.036l-.79.01c-.776.016-1.894.052-3.356.107v-.63c.479 0 .855-.063 1.128-.19.274-.127.474-.347.601-.66.127-.312.19-.747.19-1.303V4.107c0-.927-.144-1.599-.432-2.014-.288-.415-.783-.622-1.487-.622V.84a20.24 20.24 0 0 0 1.86.088c1.759 0 3.219-.142 4.38-.425v20.713zm17.302-1.537a8.143 8.143 0 0 1-1.143 2.307 5.934 5.934 0 0 1-1.978 1.758c-.81.454-1.757.68-2.841.68-1.338 0-2.532-.292-3.582-.878-1.05-.586-1.88-1.484-2.49-2.695-.61-1.211-.916-2.72-.916-4.527 0-1.767.32-3.269.96-4.504.64-1.236 1.518-2.168 2.637-2.798 1.118-.63 2.4-.945 3.845-.945.742 0 1.44.08 2.095.242.654.161 1.206.378 1.655.652.517.322.92.725 1.208 1.208.288.484.432 1.018.432 1.604 0 .713-.222 1.292-.666 1.736-.444.444-1.013.667-1.707.667-.703 0-1.262-.2-1.677-.601-.415-.4-.622-.938-.622-1.611 0-.606.19-1.128.57-1.568.382-.44.85-.737 1.407-.893-.156-.215-.398-.388-.725-.52a2.855 2.855 0 0 0-1.077-.198c-.81 0-1.501.305-2.072.915-.572.61-1.004 1.45-1.297 2.52-.293 1.07-.44 2.292-.44 3.67 0 1.464.186 2.646.557 3.544.371.899.855 1.538 1.45 1.92.596.38 1.255.57 1.978.57.684 0 1.372-.178 2.066-.534.693-.357 1.318-.989 1.875-1.897l.498.176zM79.714 8.077c2.286 0 4.08.654 5.384 1.963 1.303 1.309 1.955 3.384 1.955 6.226 0 2.832-.652 4.9-1.955 6.203-1.304 1.304-3.098 1.956-5.384 1.956-2.285 0-4.082-.652-5.39-1.956-1.309-1.303-1.963-3.371-1.963-6.203 0-2.832.654-4.905 1.963-6.219 1.308-1.313 3.105-1.97 5.39-1.97zm0 .586c-.859 0-1.545.625-2.058 1.875-.512 1.25-.769 3.16-.769 5.728 0 2.558.257 4.458.77 5.698.512 1.24 1.198 1.86 2.057 1.86.87 0 1.556-.617 2.059-1.853.502-1.235.754-3.137.754-5.705 0-2.579-.252-4.49-.754-5.735-.503-1.245-1.19-1.868-2.059-1.868zm34.397 12.554c0 .556.064.991.19 1.304.127.312.328.532.601.659.274.127.65.19 1.128.19V24l-1.86-.068a72.475 72.475 0 0 0-2.11-.05l-.667.011c-.675.016-1.688.052-3.039.107v-.63c.362 0 .645-.063.85-.19.205-.127.354-.345.447-.652.092-.308.139-.745.139-1.311v-9.331c0-.83-.125-1.453-.374-1.868-.249-.415-.725-.622-1.428-.622a2.39 2.39 0 0 0-1.362.424 3.39 3.39 0 0 0-1.048 1.158 4.062 4.062 0 0 0-.505 1.64v8.599c0 .556.056.991.168 1.304.113.312.293.532.542.659.25.127.594.19 1.033.19V24l-1.782-.068c-.94-.033-1.605-.05-1.997-.05l-.675.011c-.68.016-1.695.052-3.046.107v-.63c.361 0 .645-.063.85-.19.205-.127.354-.347.447-.66.092-.312.139-.747.139-1.303v-9.331c0-.84-.108-1.465-.323-1.875-.214-.41-.644-.615-1.289-.615-.527 0-1.013.15-1.457.454-.445.302-.799.72-1.062 1.252a3.921 3.921 0 0 0-.396 1.765v8.35c0 .556.047.991.14 1.304.092.312.241.532.446.659.205.127.489.19.85.19V24l-1.974-.08a49.067 49.067 0 0 0-1.556-.037l-.645.008c-.751.015-1.918.051-3.5.109v-.63c.478 0 .856-.063 1.134-.19.279-.127.479-.347.6-.66.123-.312.184-.747.184-1.303v-9.463c0-.928-.142-1.6-.425-2.014-.283-.415-.781-.623-1.494-.623v-.63a20.24 20.24 0 0 0 1.86.088c1.768 0 3.228-.137 4.38-.41v2.695c.899-1.855 2.451-2.783 4.659-2.783 1.523 0 2.622.386 3.295 1.157.372.43.625 1.036.762 1.817.508-1.084 1.184-1.85 2.029-2.3.845-.45 1.824-.674 2.937-.674 1.523 0 2.622.386 3.296 1.157.322.381.554.877.696 1.487.141.61.212 1.419.212 2.425v8.07zm17.478-6.49h-8.423l-.02.253c-.016.286-.024.67-.024 1.154 0 1.328.185 2.429.557 3.303.37.874.852 1.514 1.442 1.919.591.405 1.224.608 1.897.608 1.65 0 2.974-.8 3.97-2.402l.527.175a7.468 7.468 0 0 1-1.179 2.293 6.205 6.205 0 0 1-2.021 1.728c-.816.445-1.746.667-2.79.667-1.378 0-2.586-.293-3.626-.88-1.04-.585-1.85-1.476-2.432-2.672-.58-1.197-.871-2.684-.871-4.46 0-1.817.312-3.348.937-4.593s1.49-2.18 2.593-2.805 2.378-.938 3.823-.938c3.76 0 5.64 2.217 5.64 6.65zm-3.78-.57c.03-1.563-.129-2.862-.476-3.897-.346-1.035-.871-1.553-1.574-1.553-.713 0-1.307.442-1.78 1.326-.474.884-.764 2.258-.872 4.123h4.702zm23.926-5.64v.6h-3.545v12.1c0 .596.107 1.018.322 1.267.215.249.547.373.996.373.85 0 1.528-.6 2.036-1.801l.513.278c-.752 2.06-2.12 3.09-4.102 3.09-1.318 0-2.32-.341-3.003-1.025-.42-.41-.705-.93-.857-1.56-.151-.63-.227-1.501-.227-2.614V9.117h-2.52v-.6h2.52V4.532c1.65 0 3.091-.322 4.322-.967v4.952h3.545zm9.611-.44c2.285 0 4.08.654 5.383 1.963 1.304 1.309 1.956 3.384 1.956 6.226 0 2.832-.652 4.9-1.956 6.203-1.303 1.304-3.098 1.956-5.383 1.956s-4.082-.652-5.39-1.956c-1.31-1.303-1.964-3.371-1.964-6.203 0-2.832.655-4.905 1.963-6.219 1.309-1.313 3.106-1.97 5.391-1.97zm0 .586c-.86 0-1.545.625-2.058 1.875-.513 1.25-.77 3.16-.77 5.728 0 2.558.257 4.458.77 5.698.513 1.24 1.199 1.86 2.058 1.86.87 0 1.555-.617 2.058-1.853.503-1.235.754-3.137.754-5.705 0-2.579-.251-4.49-.754-5.735s-1.189-1.868-2.058-1.868zm20.073 7.441c.126 2.237.622 4.05 1.486 5.442.865 1.392 2.19 2.088 3.977 2.088.704 0 1.336-.125 1.897-.374a2.994 2.994 0 0 0 1.333-1.135c.328-.508.491-1.123.491-1.846 0-.781-.183-1.482-.55-2.102a6.501 6.501 0 0 0-1.479-1.699c-.55-.456-1.266-.975-2.145-1.558l-1.034-.678a29.098 29.098 0 0 1-2.182-1.58 7.54 7.54 0 0 1-1.758-2.05c-.464-.792-.696-1.71-.696-2.755 0-1.21.308-2.229.923-3.054.615-.825 1.43-1.438 2.446-1.838 1.016-.4 2.134-.6 3.355-.6.723 0 1.35.053 1.882.16.533.108.977.242 1.333.403.268.121.553.265.856.433l.309.175c.478.283.815.425 1.01.425.186 0 .328-.105.425-.315.098-.21.176-.544.235-1.003h.688l-.025.388c-.08 1.372-.121 3.523-.121 6.452h-.689a9.347 9.347 0 0 0-.725-3.09c-.415-.977-.996-1.77-1.743-2.38-.747-.611-1.623-.916-2.63-.916-.634 0-1.203.122-1.706.366a2.717 2.717 0 0 0-1.172 1.062c-.278.464-.417 1.003-.417 1.619 0 .996.298 1.811.893 2.446.596.635 1.372 1.277 2.33 1.926l1.933 1.311c1.172.781 2.1 1.46 2.783 2.036a7.218 7.218 0 0 1 1.67 2.022c.43.771.645 1.665.645 2.68 0 1.28-.332 2.359-.996 3.238-.665.879-1.558 1.535-2.681 1.97-1.123.435-2.378.652-3.765.652-1.123 0-2.053-.1-2.79-.3a9.344 9.344 0 0 1-2.044-.813c-.43-.284-.766-.425-1.01-.425-.186 0-.328.105-.425.315-.098.21-.176.544-.235 1.003h-.688l.016-.29c.067-1.353.101-3.957.101-7.81h.689zm22.97-5.156c.42-.937 1.033-1.65 1.839-2.138.805-.489 1.74-.733 2.805-.733 1.035 0 1.958.28 2.768.842.811.562 1.448 1.402 1.912 2.52.464 1.118.696 2.483.696 4.094 0 1.914-.286 3.538-.857 4.87-.571 1.334-1.377 2.337-2.417 3.011-1.04.674-2.268 1.01-3.684 1.01-1.29 0-2.31-.317-3.062-.951v2.988c0 .879.223 1.49.667 1.831.444.342 1.12.513 2.029.513v.63l-1.993-.074a80.817 80.817 0 0 0-3.046-.058c-.508 0-1.021.008-1.54.026l-2.24.106v-.63c.45 0 .801-.061 1.055-.183.254-.122.442-.332.564-.63.122-.298.183-.71.183-1.238v-15c0-.918-.144-1.587-.432-2.007-.288-.42-.784-.63-1.487-.63v-.63a20.24 20.24 0 0 0 1.86.088c1.749 0 3.208-.137 4.38-.41v2.783zm0 11.865c.45.528 1.08.791 1.89.791 1.28 0 2.2-.637 2.761-1.911.562-1.275.843-3.128.843-5.56 0-2.43-.225-4.167-.674-5.207-.45-1.04-1.094-1.56-1.934-1.56-.683 0-1.294.23-1.83.689-.538.459-.89 1.093-1.056 1.904v10.854zm19.192-11.865c.38-.85.93-1.54 1.648-2.073a3.99 3.99 0 0 1 2.439-.798c.605 0 1.113.132 1.523.396.41.263.713.603.908 1.018.196.415.293.862.293 1.34 0 .742-.214 1.348-.644 1.816-.43.47-.996.704-1.7.704-.683 0-1.222-.174-1.618-.52-.395-.347-.593-.813-.593-1.4 0-.956.44-1.738 1.318-2.343a1.628 1.628 0 0 0-.366-.044c-.137 0-.293.024-.469.073-.508.078-.972.32-1.391.725-.42.406-.75.891-.99 1.458a4.239 4.239 0 0 0-.358 1.655v7.954c0 .928.225 1.57.674 1.926.449.357 1.167.535 2.153.535V24l-2.954-.085c-.7-.018-1.234-.028-1.601-.031l-.58.002c-.747.01-2.057.048-3.932.114v-.63c.478 0 .857-.063 1.135-.19s.478-.347.6-.66c.123-.312.184-.747.184-1.303v-9.463c0-.928-.142-1.6-.425-2.014-.283-.415-.781-.623-1.494-.623v-.63a20.24 20.24 0 0 0 1.86.088c1.768 0 3.228-.137 4.38-.41v2.783zm16.16-2.87c2.284 0 4.079.653 5.383 1.962 1.303 1.309 1.955 3.384 1.955 6.226 0 2.832-.652 4.9-1.955 6.203-1.304 1.304-3.099 1.956-5.384 1.956s-4.082-.652-5.39-1.956c-1.309-1.303-1.963-3.371-1.963-6.203 0-2.832.654-4.905 1.963-6.219 1.308-1.313 3.105-1.97 5.39-1.97zm0 .585c-.86 0-1.546.625-2.059 1.875-.513 1.25-.769 3.16-.769 5.728 0 2.558.256 4.458.77 5.698.512 1.24 1.198 1.86 2.057 1.86.87 0 1.555-.617 2.058-1.853.503-1.235.755-3.137.755-5.705 0-2.579-.252-4.49-.755-5.735s-1.189-1.868-2.058-1.868zm25.211 12.07c0 .928.144 1.6.432 2.015.289.415.784.622 1.487.622V24a19.922 19.922 0 0 0-1.86-.088c-1.758 0-3.218.142-4.38.425v-2.71c-.908 1.865-2.52 2.798-4.834 2.798-1.494 0-2.583-.39-3.267-1.172-.332-.371-.568-.864-.71-1.48-.142-.615-.212-1.42-.212-2.417v-7.602c0-.918-.144-1.587-.433-2.007-.288-.42-.783-.63-1.486-.63v-.63a20.24 20.24 0 0 0 1.86.088c1.748 0 3.208-.137 4.38-.41v12.422c0 .83.124 1.457.373 1.882.25.425.72.637 1.414.637.527 0 1.013-.153 1.457-.461a3.25 3.25 0 0 0 1.062-1.26c.264-.532.396-1.12.396-1.765v-7.866c0-.918-.144-1.587-.432-2.007-.288-.42-.784-.63-1.487-.63v-.63a20.24 20.24 0 0 0 1.86.088c1.748 0 3.208-.137 4.38-.41v12.568zm13.962-12.216v.6h-3.545v12.1c0 .596.108 1.018.323 1.267.215.249.547.373.996.373.85 0 1.528-.6 2.036-1.801l.513.278c-.752 2.06-2.12 3.09-4.102 3.09-1.318 0-2.32-.341-3.003-1.025-.42-.41-.705-.93-.857-1.56-.151-.63-.227-1.501-.227-2.614V9.117h-2.52v-.6h2.52V4.532c1.65 0 3.09-.322 4.321-.967v4.952h3.545zm3.386 9.697c.196 1.728.618 3.08 1.267 4.057.65.977 1.57 1.465 2.762 1.465.585 0 1.086-.178 1.501-.534.415-.357.623-.891.623-1.604 0-.557-.125-1.055-.374-1.494a4.638 4.638 0 0 0-.945-1.172l-.282-.247a43.57 43.57 0 0 0-1.432-1.16l-.772-.633c-.552-.459-.99-.838-1.315-1.14a6.223 6.223 0 0 1-1.194-1.53c-.332-.59-.498-1.262-.498-2.014 0-.86.234-1.602.703-2.227.469-.625 1.099-1.098 1.89-1.42a6.768 6.768 0 0 1 2.578-.484c.762 0 1.46.093 2.095.278.544.16.987.34 1.33.542l.164.103c.195.137.37.205.527.205.371 0 .606-.366.703-1.099h.66l-.025.364c-.062 1.042-.093 2.679-.093 4.91h-.659c-.176-1.309-.569-2.41-1.18-3.303-.61-.894-1.496-1.34-2.658-1.34-.596 0-1.084.17-1.465.512-.38.342-.57.81-.57 1.406 0 .674.224 1.255.673 1.743.45.489.991.957 1.626 1.407l.9.644c.197.145.361.267.491.366.82.616 1.473 1.153 1.956 1.612.483.459.877.979 1.18 1.56.302.58.453 1.247.453 2 0 .878-.256 1.655-.769 2.328-.512.674-1.203 1.194-2.072 1.56-.87.367-1.822.55-2.857.55-.958 0-1.805-.17-2.542-.51l-.241-.12c-.596-.303-1.065-.513-1.406-.63a.482.482 0 0 0-.147-.03c-.322 0-.556.357-.703 1.07h-.66l.023-.368c.063-1.182.095-3.057.095-5.623h.66z"/>
</svg>
